#!OML:ASF F:\VICON\USERDATA\INSTALL\rory3\rory3.ASF
:FULLY-SPECIFIED
:DEGREES
1089
root -1.3306 20.1621 4.00591 -182.394 -189.934 181.612
lowerback 6.0027 0.943363 -1.97363
upperback 2.4368 1.12911 -1.74852
thorax -0.858731 0.56452 -0.763829
lowerneck -6.93724 -0.359103 -8.08787
upperneck 28.3207 -0.549181 5.91105
head 10.1572 -0.409535 3.45781
rclavicle -3.96078e-014 5.1684e-015
rhumerus -34.7085 0.903775 -76.8893
rradius 41.2685
rwrist 8.49246
rhand -25.1225 3.47451
rfingers 7.12502
rthumb 1.39328 -26.5007
lclavicle -3.96078e-014 5.1684e-015
lhumerus -33.853 5.36055 78.3311
lradius 35.5926
lwrist 4.06067
lhand -27.7325 24.4249
lfingers 7.12502
lthumb -1.12759 54.4017
rfemur -19.3335 13.6788 20.6729
rtibia 31.2423
rfoot 16.6515 -15.0112
rtoes 8.75709
lfemur -17.9084 7.49125 -25.5808
ltibia 62.9841
lfoot -12.4695 -13.3975
ltoes 30.0464
1090
root -1.32609 20.0465 4.08704 -182.359 -190.305 181.399
lowerback 6.01254 0.92542 -1.67338
upperback 2.39732 1.12201 -1.64722
thorax -0.901408 0.562246 -0.828026
lowerneck -6.51173 -0.413823 -8.28802
upperneck 27.5418 -0.645041 6.0314
head 9.79821 -0.455668 3.50002
rclavicle -1.88845e-014 -7.55382e-015
rhumerus -34.8455 1.21506 -76.8089
rradius 41.2917
rwrist 8.21539
rhand -25.1926 3.61114
rfingers 7.12502
rthumb 1.32558 -26.3645
lclavicle -1.88845e-014 -7.55382e-015
lhumerus -33.879 4.9858 78.4174
lradius 36.0007
lwrist 3.29507
lhand -27.6912 25.5866
lfingers 7.12502
lthumb -1.08764 55.5636
rfemur -19.1042 13.5832 20.9645
rtibia 31.4122
rfoot 15.8905 -15.7216
rtoes 8.68971
lfemur -18.9409 7.77848 -25.1779
ltibia 65.288
lfoot -14.0049 -12.8704
ltoes 21.5317
1091
root -1.32398 19.9064 4.16823 -182.385 -190.801 181.065
lowerback 6.03933 0.839661 -1.31549
upperback 2.42788 1.03027 -1.48041
thorax -0.88218 0.517342 -0.851174
lowerneck -7.3045 -0.315824 -7.84251
upperneck 27.575 -0.400332 5.57744
head 9.94443 -0.336858 3.2919
rclavicle -1.66482e-015 -8.74653e-015
rhumerus -34.7373 1.49179 -76.6971
rradius 41.159
rwrist 7.94927
rhand -25.1509 3.4095
rfingers 7.12502
rthumb 1.36581 -26.5659
lclavicle -1.66482e-015 -8.74653e-015
lhumerus -33.916 4.47904 78.5985
lradius 36.3851
lwrist 2.93719
lhand -28.3136 24.6226
lfingers 7.12502
lthumb -1.68883 54.5957
rfemur -18.7072 13.1672 21.4127
rtibia 31.6124
rfoot 13.8614 -15.935
rtoes 7.27668
lfemur -19.9621 7.89862 -24.5894
ltibia 67.7888
lfoot -15.0534 -13.084
ltoes 16.0447
1092
root -1.32297 19.7488 4.2471 -182.471 -191.347 180.737
lowerback 6.14771 0.743985 -0.979886
upperback 2.49369 0.923352 -1.31429
thorax -0.872962 0.46494 -0.862535
lowerneck -7.80514 -0.297823 -7.74297
upperneck 27.323 -0.30712 5.41272
head 9.94343 -0.29309 3.22243
rclavicle 4.4975e-015 3.97569e-015
rhumerus -34.6679 1.6081 -76.4807
rradius 41.1961
rwrist 8.02645
rhand -25.2245 3.99582
rfingers 7.12502
rthumb 1.29477 -25.98
lclavicle 4.4975e-015 3.97569e-015
lhumerus -33.9432 3.92895 78.7675
lradius 36.7497
lwrist 2.51489
lhand -29.0433 23.074
lfingers 7.12502
lthumb -2.3935 53.0404
rfemur -18.2168 12.4064 21.8836
rtibia 32.0525
rfoot 11.5596 -13.0256
rtoes -1.38839
lfemur -21.0338 7.94239 -23.9787
ltibia 70.3655
lfoot -15.8682 -13.3057
ltoes 11.2106
1093
root -1.32436 19.5773 4.32192 -182.624 -191.793 180.405
lowerback 6.4106 0.711173 -0.647289
upperback 2.49926 0.896958 -1.17696
thorax -1.01071 0.452923 -0.910032
lowerneck -7.90086 -0.324704 -7.6382
upperneck 26.7849 -0.322939 5.30764
head 9.76867 -0.293259 3.15162
rclavicle -1.76173e-014 -4.77083e-015
rhumerus -34.8289 1.66267 -76.2927
rradius 41.439
rwrist 8.20325
rhand -25.4229 4.90453
rfingers 7.12502
rthumb 1.10311 -25.0724
lclavicle -1.76173e-014 -4.77083e-015
lhumerus -33.9662 3.26456 78.8973
lradius 37.046
lwrist 1.935
lhand -29.3197 22.4389
lfingers 7.12502
lthumb -2.66046 52.402
rfemur -17.6612 11.4776 22.4123
rtibia 32.6938
rfoot 8.54725 -9.96343
rtoes -6.75691
lfemur -22.2062 8.10692 -23.302
ltibia 73.0118
lfoot -16.5128 -13.7442
ltoes 7.38617
1094
root -1.32596 19.4386 4.39776 -182.784 -192.133 180.067
lowerback 6.72587 0.706797 -0.326231
upperback 2.43138 0.908622 -1.03248
thorax -1.25286 0.459115 -0.947842
lowerneck -7.74226 -0.33666 -7.56354
upperneck 26.1299 -0.337115 5.22943
head 9.50484 -0.294022 3.09175
rclavicle 2.33572e-015 -3.57812e-015
rhumerus -35.0862 2.03214 -76.2624
rradius 41.7109
rwrist 7.86008
rhand -25.9003 5.20581
rfingers 7.12502
rthumb 0.642037 -24.773
lclavicle 2.33572e-015 -3.57812e-015
lhumerus -34.1714 2.53918 79.074
lradius 37.5531
lwrist 1.40147
lhand -29.4097 22.8357
lfingers 7.12502
lthumb -2.74739 52.7977
rfemur -17.4503 10.7978 22.8686
rtibia 33.7069
rfoot 5.86605 -7.75264
rtoes -6.89345
lfemur -23.1649 8.28803 -22.5594
ltibia 75.3614
lfoot -17.184 -14.8999
ltoes 4.84857
1095
root -1.32709 19.2725 4.46677 -182.966 -192.519 179.946
lowerback 7.10792 0.666645 -0.221564
upperback 2.39542 0.860238 -0.939306
thorax -1.50244 0.434541 -0.912858
lowerneck -7.59623 -0.34276 -7.59644
upperneck 25.5641 -0.354696 5.272
head 9.27767 -0.295466 3.09564
rclavicle 3.49116e-014 -2.38542e-015
rhumerus -35.2638 2.57812 -76.3
rradius 41.9853
rwrist 7.40135
rhand -26.1205 4.90368
rfingers 7.12502
rthumb 0.429387 -25.0756
lclavicle 3.49116e-014 -2.38542e-015
lhumerus -34.5054 1.92215 79.2396
lradius 38.2162
lwrist 0.788387
lhand -29.3437 24.1917
lfingers 7.12502
lthumb -2.68366 54.1545
rfemur -17.1946 9.99694 23.1172
rtibia 34.8612
rfoot 3.54995 -5.84779
rtoes -8.41047
lfemur -24.1591 8.20065 -22.0897
ltibia 77.6451
lfoot -17.4238 -16.1176
ltoes -0.878088
1096
root -1.33118 19.1311 4.52997 -183.298 -192.882 179.862
lowerback 7.70471 0.646911 -0.244239
upperback 2.44749 0.831291 -0.815448
thorax -1.78223 0.419668 -0.778089
lowerneck -7.66117 -0.372796 -7.65533
upperneck 25.1987 -0.394438 5.34189
head 9.16429 -0.307351 3.1179
rclavicle -1.84124e-014 -8.34896e-015
rhumerus -35.2542 2.96116 -76.2289
rradius 42.1887
rwrist 7.35466
rhand -26.2079 4.82299
rfingers 7.12502
rthumb 0.344934 -25.1565
lclavicle -1.84124e-014 -8.34896e-015
lhumerus -34.751 1.28791 79.48
lradius 38.8084
lwrist 0.407308
lhand -29.4598 25.5194
lfingers 7.12502
lthumb -2.79578 55.4808
rfemur -17.1956 9.50591 23.3291
rtibia 36.2883
rfoot 0.981415 -4.71653
rtoes -11.0351
lfemur -24.9418 7.99526 -21.6354
ltibia 79.5621
lfoot -16.5658 -17.5663
ltoes -2.72569
1097
root -1.33753 18.9747 4.59415 -183.667 -193.074 179.746
lowerback 8.17575 0.695877 -0.30089
upperback 2.5948 0.893585 -0.677765
thorax -1.89346 0.45081 -0.615632
lowerneck -7.64729 -0.400644 -7.65827
upperneck 24.7016 -0.43358 5.36639
head 8.99086 -0.317983 3.11119
rclavicle 3.65267e-014 -1.17283e-014
rhumerus -35.0428 3.33861 -76.1856
rradius 42.3167
rwrist 7.50634
rhand -26.2794 4.69406
rfingers 7.12502
rthumb 0.275874 -25.2855
lclavicle 3.65267e-014 -1.17283e-014
lhumerus -34.7321 0.742572 79.7237
lradius 39.1807
lwrist -0.00870057
lhand -30.0359 24.9725
lfingers 7.12502
lthumb -3.35214 54.9259
rfemur -17.2502 9.15845 23.631
rtibia 37.7153
rfoot -1.91083 -4.38765
rtoes -7.0051
lfemur -25.566 7.84777 -21.106
ltibia 81.2845
lfoot -15.6373 -19.4439
ltoes -3.64236
1098
root -1.34203 18.8356 4.66221 -184.08 -193.141 179.821
lowerback 8.62984 0.786401 -0.565164
upperback 2.79161 0.992918 -0.588581
thorax -1.94647 0.500453 -0.390099
lowerneck -7.63302 -0.397038 -7.61407
upperneck 24.304 -0.430002 5.35933
head 8.84979 -0.308756 3.09216
rclavicle 3.85145e-015 -7.95139e-016
rhumerus -34.7137 3.73636 -76.1761
rradius 42.3871
rwrist 7.75119
rhand -26.4131 4.08078
rfingers 7.12502
rthumb 0.146779 -25.8989
lclavicle 3.85145e-015 -7.95139e-016
lhumerus -34.6781 0.219913 79.9726
lradius 39.624
lwrist -0.397662
lhand -30.7183 23.6893
lfingers 7.12502
lthumb -4.01114 53.6313
rfemur -17.3274 8.72808 23.7683
rtibia 39.2803
rfoot -4.38986 -4.23582
rtoes -5.33679
lfemur -25.8159 7.75607 -20.7892
ltibia 82.6537
lfoot -14.9978 -21.4354
ltoes -4.30069
1099
root -1.35162 18.6993 4.71512 -184.504 -193.039 179.82
lowerback 9.258 0.916784 -0.76282
upperback 2.96541 1.14641 -0.504087
thorax -2.11852 0.577007 -0.216746
lowerneck -7.76294 -0.404019 -7.63045
upperneck 24.0887 -0.447522 5.45718
head 8.80045 -0.30505 3.1229
rclavicle -1.72694e-014 -5.36719e-015
rhumerus -34.288 4.09456 -76.2308
rradius 42.2509
rwrist 8.09754
rhand -26.7983 3.77772
rfingers 7.12502
rthumb -0.225265 -26.2019
lclavicle -1.72694e-014 -5.36719e-015
lhumerus -34.5463 -0.212289 80.1637
lradius 40.081
lwrist -0.82929
lhand -30.8374 23.7556
lfingers 7.12502
lthumb -4.12612 53.6954
rfemur -17.4867 8.21365 24.0982
rtibia 40.881
rfoot -6.09521 -4.10185
rtoes -7.17018
lfemur -26.1283 7.80262 -20.3653
ltibia 83.8271
lfoot -13.5933 -23.2238
ltoes -1.79528
1100
root -1.37317 18.5452 4.73767 -184.813 -192.653 179.632
lowerback 10.0529 1.09082 -0.880097
upperback 3.0647 1.3611 -0.378798
thorax -2.45946 0.68412 -0.0600137
lowerneck -8.0215 -0.390548 -7.5466
upperneck 23.9379 -0.429947 5.48683
head 8.79479 -0.282582 3.11853
rclavicle -1.95306e-014 7.95139e-016
rhumerus -33.6024 4.54128 -76.3816
rradius 41.8095
rwrist 8.28826
rhand -27.3897 4.15075
rfingers 7.12502
rthumb -0.796481 -25.8275
lclavicle -1.95306e-014 7.95139e-016
lhumerus -34.2427 -0.410088 80.2136
lradius 40.2691
lwrist -1.27088
lhand -30.804 24.2255
lfingers 7.12502
lthumb -4.09387 54.166
rfemur -17.9192 7.94514 24.746
rtibia 42.564
rfoot -7.78993 -4.39366
rtoes -8.20565
lfemur -26.9235 8.15632 -19.6993
ltibia 85.0469
lfoot -12.2777 -24.2583
ltoes -0.343536
1101
root -1.37769 18.4447 4.78871 -185.153 -192.38 180.296
lowerback 10.6082 1.25478 -1.68253
upperback 3.32249 1.48607 -0.541565
thorax -2.5128 0.746767 0.198531
lowerneck -8.12083 -0.324561 -7.28386
upperneck 23.6979 -0.358217 5.41959
head 8.72453 -0.229638 3.05231
rclavicle -2.49475e-014 4.17448e-015
rhumerus -32.6748 5.07661 -76.619
rradius 40.9705
rwrist 8.45671
rhand -27.4497 3.99068
rfingers 7.12502
rthumb -0.854423 -25.9873
lclavicle -2.49475e-014 4.17448e-015
lhumerus -33.9434 -0.447593 80.139
lradius 40.3278
lwrist -1.71974
lhand -30.8435 23.9945
lfingers 7.12502
lthumb -4.13198 53.9341
rfemur -18.1835 7.79323 24.3027
rtibia 44.1596
rfoot -9.79575 -4.54556
rtoes -6.725
lfemur -26.8719 8.22432 -20.0839
ltibia 85.7241
lfoot -11.881 -24.304
ltoes -0.798556
1102
root -1.38284 18.3301 4.8325 -185.33 -192.075 180.747
lowerback 11.0612 1.38521 -2.27178
upperback 3.43203 1.58218 -0.66656
thorax -2.66011 0.795393 0.378653
lowerneck -8.03733 -0.206189 -7.06453
upperneck 23.4651 -0.239975 5.44592
head 8.61929 -0.151419 3.02907
rclavicle -4.8578e-014 6.36111e-015
rhumerus -31.6828 5.72575 -76.919
rradius 39.8139
rwrist 8.60203
rhand -26.9047 3.51846
rfingers 7.12502
rthumb -0.328058 -26.461
lclavicle -4.8578e-014 6.36111e-015
lhumerus -33.7971 -0.474119 80.0603
lradius 40.369
lwrist -1.90457
lhand -30.7991 23.9053
lfingers 7.12502
lthumb -4.08915 53.8458
rfemur -18.4826 7.6248 24.1231
rtibia 45.5323
rfoot -11.4724 -4.79901
rtoes -6.62072
lfemur -27.1454 8.32295 -20.2587
ltibia 86.4334
lfoot -11.6585 -23.9138
ltoes -1.87655
1103
root -1.3868 18.2204 4.88025 -185.429 -191.786 181.014
lowerback 11.236 1.47961 -2.67679
upperback 3.52835 1.65546 -0.779905
thorax -2.66452 0.831593 0.475903
lowerneck -7.96428 -0.10245 -6.99134
upperneck 23.3137 -0.168402 5.69606
head 8.54629 -0.0866118 3.10468
rclavicle 5.06901e-015 -6.75868e-015
rhumerus -30.8148 6.08199 -77.213
rradius 38.8374
rwrist 9.12617
rhand -26.7775 3.33644
rfingers 7.12502
rthumb -0.205188 -26.6432
lclavicle 5.06901e-015 -6.75868e-015
lhumerus -33.6215 -0.391856 79.9353
lradius 40.2071
lwrist -2.06483
lhand -30.4056 24.1149
lfingers 7.12502
lthumb -3.70916 54.0623
rfemur -18.6491 7.61256 24.1345
rtibia 46.5725
rfoot -13.0712 -5.19032
rtoes -4.3101
lfemur -27.5008 8.39092 -20.2386
ltibia 87.019
lfoot -11.302 -23.2241
ltoes -1.76894
